# xmcd
#
# Track frame offsets:
#	150
#	14879
#	31533
#	43131
#	59721
#	81316
#	105033
#	116886
#	140072
#
# Disc length: 2350 seconds
#
# Revision: 1
# Processed by: cddbd v1.5.2PL0 Copyright (c) Steve Scherf et al.
# Submitted via: audiograbber 1.83.01
#
DISCID=7c092c09
DTITLE=Manfred Krug and die Modern Jazz Big Band 65 - Manfred Krug and die Modern J
DTITLE=azz Big Band 65 - FADED
DYEAR=1965
DGENRE=Jazz
TTITLE0=On The Sunny Side Of The Street
TTITLE1=Georgia
TTITLE2=Rosetta
TTITLE3=The Preacher
TTITLE4=Sister Salvation
TTITLE5=You Come A Long Way From St. Louis
TTITLE6=Halleluja, I Just Love Her So
TTITLE7=Blues In F
TTITLE8=Blues-March
EXTD=
EXTT0=
EXTT1=
EXTT2=
EXTT3=
EXTT4=
EXTT5=
EXTT6=
EXTT7=
EXTT8=
PLAYORDER=
